<?xml version="1.0" standalone="no"?>
<!DOCTYPE svg PUBLIC "-//W3C//DTD SVG 20010904//EN"
 "http://www.w3.org/TR/2001/REC-SVG-20010904/DTD/svg10.dtd">
<svg version="1.0" xmlns="http://www.w3.org/2000/svg"
 width="512" height="512" viewBox="0 0 512 512"
 preserveAspectRatio="xMidYMid meet">

<g transform="translate(0.0,512) scale(0.1,-0.1)"
fill="#000000" stroke="none">
<path d="M550 5031 c-277 -74 -479 -289 -535 -567 -14 -70 -15 -213 -13 -1309
l3 -1230 24 -70 c69 -204 188 -348 365 -441 143 -76 152 -77 529 -81 l337 -4
0 -590 c0 -631 0 -632 49 -659 25 -13 77 -13 101 0 10 5 306 289 657 630 l638
620 885 0 c849 0 888 1 968 20 254 61 445 241 534 505 l23 70 3 1230 c2 1099
1 1238 -13 1310 -57 280 -268 500 -546 569 -59 14 -246 16 -2005 15 -1818 0
-1943 -1 -2004 -18z m3981 -197 c169 -50 296 -170 362 -342 l22 -57 3 -1212
c3 -1346 6 -1281 -63 -1412 -59 -113 -167 -206 -290 -253 l-60 -23 -942 -5
-941 -5 -69 -65 c-37 -36 -295 -285 -572 -555 -277 -269 -507 -492 -512 -493
-5 -2 -9 225 -9 526 l0 529 -24 26 c-13 14 -35 29 -48 32 -12 2 -192 6 -398 7
l-375 3 -68 27 c-125 50 -223 136 -282 249 -69 131 -66 66 -63 1412 l3 1212
25 65 c65 165 174 271 340 327 l65 22 1921 1 c1729 0 1926 -2 1975 -16z"/>
</g>
</svg>
