<?xml version="1.0" standalone="no"?>
<!DOCTYPE svg PUBLIC "-//W3C//DTD SVG 20010904//EN"
 "http://www.w3.org/TR/2001/REC-SVG-20010904/DTD/svg10.dtd">
<svg version="1.0" xmlns="http://www.w3.org/2000/svg"
 width="512" height="512" viewBox="0 0 512 512"
 preserveAspectRatio="xMidYMid meet">

<g transform="translate(0.000000,512.000000) scale(0.100000,-0.100000)"
fill="#000000" stroke="none">
<path d="M2694 4650 c-29 -11 -54 -48 -54 -79 0 -25 93 -387 112 -434 25 -63
100 -77 149 -28 16 16 29 40 29 53 0 37 -108 428 -125 455 -25 37 -69 50 -111
33z"/>
<path d="M3658 4635 c-18 -10 -31 -30 -42 -62 -33 -105 -106 -385 -106 -409 0
-15 12 -38 29 -55 49 -49 124 -35 149 28 20 48 112 403 112 429 0 35 -51 84
-87 84 -15 -1 -40 -7 -55 -15z"/>
<path d="M1833 4161 c-38 -24 -53 -78 -33 -116 7 -13 83 -93 169 -179 138
-137 161 -156 190 -156 43 0 68 14 87 51 27 53 13 75 -159 247 -177 177 -197
189 -254 153z"/>
<path d="M4361 4010 c-88 -83 -166 -162 -175 -175 -18 -28 -21 -77 -5 -106 16
-30 66 -48 103 -38 42 12 353 323 361 360 7 32 -16 84 -44 99 -11 5 -34 10
-51 10 -26 0 -55 -23 -189 -150z"/>
<path d="M3090 3841 c-303 -44 -576 -212 -744 -459 -27 -40 -52 -72 -55 -72
-3 0 -31 7 -61 16 -88 25 -354 30 -465 10 -389 -73 -709 -313 -884 -664 -72
-144 -121 -345 -121 -499 0 -78 -1 -83 -23 -87 -12 -2 -51 -9 -87 -16 -240
-43 -476 -231 -576 -457 -52 -116 -68 -199 -68 -338 0 -149 20 -238 80 -358
47 -93 82 -143 152 -214 99 -101 226 -175 371 -216 l76 -22 1427 -3 c1557 -3
1537 -3 1706 54 442 150 733 601 682 1058 -26 234 -115 427 -279 607 l-61 67
41 91 c106 240 124 492 53 738 -128 444 -525 752 -989 768 -66 2 -145 0 -175
-4z m365 -210 c443 -127 718 -556 641 -1001 -14 -78 -71 -249 -91 -268 -2 -3
-35 9 -72 26 -193 88 -382 118 -568 92 -67 -10 -162 -31 -196 -45 -12 -5 -21
11 -43 76 -48 146 -133 298 -234 417 -43 50 -44 54 -31 79 46 88 179 174 297
195 63 10 84 10 167 -7 115 -22 142 -16 168 38 18 36 18 38 0 75 -15 31 -27
40 -73 55 -179 60 -385 32 -540 -73 -53 -36 -128 -109 -162 -159 l-17 -24 -54
35 c-29 20 -77 48 -105 62 -28 14 -53 30 -57 36 -13 20 91 147 181 220 110 90
274 163 421 190 80 15 289 4 368 -19z m-1243 -510 c189 -49 328 -126 464 -255
153 -144 256 -324 300 -521 13 -59 24 -87 45 -107 34 -35 62 -35 142 -2 210
86 466 86 660 0 258 -114 439 -348 488 -631 14 -84 6 -255 -17 -340 -76 -284
-301 -507 -594 -591 -62 -18 -137 -19 -1507 -22 -1604 -3 -1517 -6 -1662 65
-112 55 -225 169 -279 283 -48 102 -62 163 -62 275 0 111 14 174 60 270 104
216 320 355 552 355 74 0 120 17 138 49 5 11 10 79 10 151 0 267 75 485 231
673 171 205 371 316 669 371 61 11 287 -3 362 -23z"/>
<path d="M4796 3255 c-124 -33 -206 -61 -218 -73 -10 -10 -21 -34 -24 -53 -9
-51 33 -99 85 -99 48 0 406 94 438 115 25 17 43 53 43 86 0 34 -53 79 -92 78
-18 0 -123 -25 -232 -54z"/>
<path d="M4575 2415 c-19 -18 -25 -35 -25 -65 0 -68 18 -78 261 -144 215 -58
217 -58 252 -41 49 23 65 70 42 119 -20 41 -23 43 -255 106 -212 57 -241 60
-275 25z"/>
</g>
</svg>
