<?xml version="1.0" standalone="no"?>
<!DOCTYPE svg PUBLIC "-//W3C//DTD SVG 20010904//EN"
 "http://www.w3.org/TR/2001/REC-SVG-20010904/DTD/svg10.dtd">
<svg version="1.0" xmlns="http://www.w3.org/2000/svg"
 width="512" height="512" viewBox="0 0 512 512"
 preserveAspectRatio="xMidYMid meet">

<g transform="translate(0.0,512) scale(0.1,-0.1)"
fill="#000000" stroke="none">
<path d="M2380 5114 c-19 -2 -78 -9 -130 -14 -330 -36 -695 -160 -990 -336
-375 -224 -680 -529 -904 -904 -175 -292 -291 -632 -338 -990 -16 -123 -16
-497 0 -620 82 -623 356 -1150 820 -1581 256 -239 575 -425 922 -539 274 -91
491 -124 800 -124 228 0 329 9 530 50 689 141 1304 583 1674 1204 175 292 291
632 338 990 16 123 16 497 0 620 -47 358 -163 698 -338 990 -224 375 -529 680
-904 904 -289 173 -634 291 -980 336 -88 12 -438 21 -500 14z m385 -304 c583
-54 1146 -347 1517 -790 592 -706 703 -1680 286 -2493 -51 -99 -207 -342 -214
-334 -3 2 -22 40 -43 83 -203 421 -581 773 -1015 948 -56 23 -102 46 -102 51
1 6 27 31 58 58 158 131 287 352 333 570 138 646 -365 1267 -1025 1267 -660 0
-1163 -621 -1025 -1267 46 -218 175 -439 333 -570 31 -27 59 -52 62 -56 3 -5
-43 -28 -101 -51 -439 -177 -816 -527 -1020 -950 -21 -43 -40 -81 -43 -83 -7
-8 -163 235 -214 334 -417 813 -306 1787 286 2493 465 555 1200 857 1927 790z
m-20 -963 c269 -75 478 -288 546 -557 8 -31 14 -105 14 -170 0 -123 -12 -188
-53 -285 -93 -219 -290 -387 -522 -446 -71 -18 -269 -18 -340 0 -232 59 -429
227 -522 446 -41 97 -53 162 -53 285 0 123 12 188 53 285 93 220 305 400 522
444 30 6 64 13 75 15 37 9 229 -3 280 -17z m26 -1793 c340 -47 635 -182 889
-407 192 -170 361 -419 448 -658 l21 -56 -87 -75 c-238 -204 -486 -346 -772
-441 -461 -154 -959 -154 -1420 0 -286 95 -534 237 -772 441 l-87 75 21 56
c11 31 42 101 69 156 305 629 1003 1005 1690 909z"/>
</g>
</svg>
